Coordinates
version=1
nRows=16
nColumns=22
inDegrees=yes

Units are S.I. units (second, meters, Newtons, ...)
If the header above contains a line with 'inDegrees', this indicates whether rotational values are in degrees (yes) or radians (no).

endheader
time	pelvis_tilt	pelvis_list	pelvis_rotation	pelvis_tx	pelvis_ty	pelvis_tz	hip_flexion_r	hip_adduction_r	hip_rotation_r	knee_angle_r	ankle_angle_r	subtalar_angle_r	hip_flexion_l	hip_adduction_l	hip_rotation_l	knee_angle_l	ankle_angle_l	subtalar_angle_l	lumbar_extension	lumbar_bending	lumbar_rotation
      5.41000000	     -7.48390587	     -8.61968392	    270.09145109	     -0.76430290	      0.92637439	      0.18187594	     14.30151759	      3.94833371	     -5.87437695	    -20.62875769	     -2.06574120	      6.75932494	    -17.37860549	     -4.19576047	     10.96749350	    -35.24469508	     14.42075401	     -5.07664644	    -11.07629763	      6.73454552	    -17.19351760
      5.42000000	     -7.62502039	     -8.91395684	    270.96961130	     -0.76657110	      0.92803908	      0.19103743	     13.50858530	      4.15749484	     -6.73644216	    -20.96671522	     -1.42207465	      6.10827228	    -16.75497853	     -4.80634470	     11.29225938	    -37.26330560	     11.81172599	     -3.77626178	    -11.11294393	      7.00457793	    -17.34456325
      5.43000000	     -7.72102779	     -9.18658122	    271.86637897	     -0.76876412	      0.92962645	      0.19984424	     12.69458610	      4.34028196	     -7.67174655	    -21.17376089	     -0.75059014	      5.42132085	    -15.95435218	     -5.36636004	     11.63456939	    -39.40892723	      9.22052016	     -2.45350592	    -11.16393178	      7.20814076	    -17.45914992
      5.44000000	     -7.77669643	     -9.42918204	    272.77516730	     -0.77090277	      0.93109112	      0.20829347	     11.88134690	      4.51183660	     -8.60365575	    -21.26773257	     -0.08904681	      4.72102814	    -14.98143650	     -5.87182478	     11.99639517	    -41.66238073	      6.73644094	     -1.17394613	    -11.22217751	      7.34942911	    -17.53809902
      5.45000000	     -7.79675418	     -9.63936639	    273.68289124	     -0.77299436	      0.93238254	      0.21637959	     11.11563595	      4.66582617	     -9.55224879	    -21.33316292	      0.58259222	      4.06538234	    -13.84707893	     -6.32267434	     12.34852554	    -44.00350242	      4.47646279	      0.01758540	    -11.28743711	      7.43406728	    -17.56221778
      5.46000000	     -7.80064645	     -9.82229711	    274.57667065	     -0.77506258	      0.93350647	      0.22412228	     10.39859333	      4.83008185	    -10.44769889	    -21.37882491	      1.23356187	      3.44325598	    -12.57976729	     -6.73848396	     12.67114691	    -46.39511026	      2.49215684	      1.07726036	    -11.36378711	      7.48607306	    -17.53078829
      5.47000000	     -7.80136209	     -9.97717756	    275.44358347	     -0.77711886	      0.93445722	      0.23154897	      9.74510162	      5.01339856	    -11.28018583	    -21.43153514	      1.86874753	      2.88393151	    -11.20181851	     -7.13435593	     12.94107675	    -48.79598645	      0.84635031	      1.94319615	    -11.44375079	      7.52176287	    -17.44006153
      5.48000000	     -7.81121784	    -10.12313680	    276.26878276	     -0.77918123	      0.93528139	      0.23869819	      9.13516858	      5.23302807	    -12.01368776	    -21.49349136	      2.47323960	      2.37403711	     -9.76205179	     -7.53369066	     13.12453479	    -51.15245815	     -0.43050009	      2.57559220	    -11.54069844	      7.55852955	    -17.30507330
      5.49000000	     -7.84301676	    -10.28000369	    277.04905635	     -0.78123807	      0.93603226	      0.24561196	      8.54317184	      5.49618676	    -12.68546371	    -21.55747694	      3.00779434	      1.97129533	     -8.30843829	     -7.95673052	     13.22329963	    -53.41585704	     -1.28773154	      2.90163272	    -11.66648266	      7.61698951	    -17.13414016
      5.50000000	     -7.89509980	    -10.43309792	    277.73782507	     -0.78337612	      0.93673074	      0.25235666	      7.97019881	      5.81862275	    -13.18122340	    -21.59898199	      3.54076021	      1.55968536	     -6.86707799	     -8.40144538	     13.19692201	    -55.52740695	     -1.75316227	      2.99037037	    -11.79567343	      7.68474354	    -16.88901772
      5.51000000	     -7.96565647	    -10.59985822	    278.33979938	     -0.78556798	      0.93743416	      0.25897508	      7.38882508	      6.18902075	    -13.55521383	    -21.61095414	      4.02674835	      1.19319343	     -5.47884182	     -8.87326880	     13.05586801	    -57.45289068	     -1.80096663	      2.76380989	    -11.93800557	      7.76534217	    -16.59076294
      5.52000000	     -8.03605279	    -10.77789765	    278.83961536	     -0.78783487	      0.93816692	      0.26548918	      6.79452834	      6.58669308	    -13.78626179	    -21.59185240	      4.50745414	      0.82406221	     -4.16376483	     -9.35129187	     12.79092798	    -59.17012066	     -1.47900651	      2.11016884	    -12.09079672	      7.83400320	    -16.24185585
      5.53000000	     -8.12182140	    -10.97049367	    279.24968450	     -0.79013100	      0.93894283	      0.27191671	      6.17253976	      7.01783968	    -13.92758403	    -21.52033503	      4.90782771	      0.57281152	     -2.93389884	     -9.85430978	     12.42680642	    -60.67128224	     -0.78888224	      1.14541311	    -12.24833193	      7.91567506	    -15.84547916
      5.54000000	     -8.20093247	    -11.16786276	    279.57140791	     -0.79244763	      0.93975915	      0.27824668	      5.53238550	      7.45275865	    -13.97803165	    -21.40707056	      5.26039421	      0.38236712	     -1.78849810	    -10.35069104	     11.97461966	    -61.95391723	      0.17953802	     -0.12820193	    -12.40449753	      7.98431241	    -15.41069209
      5.55000000	     -8.28276435	    -11.36011509	    279.81116256	     -0.79475938	      0.94058391	      0.28443725	      4.89392639	      7.89014126	    -13.96015984	    -21.26474024	      5.52850774	      0.24038831	     -0.70852495	    -10.84593063	     11.44712414	    -63.03539228	      1.34746738	     -1.63595531	    -12.55256009	      8.05488812	    -14.94278155
      5.56000000	     -8.32538357	    -11.55032456	    280.00345902	     -0.79699249	      0.94143943	      0.29049080	      4.23131850	      8.28005740	    -13.90697232	    -21.07398517	      5.81325095	      0.13477131	      0.28621700	    -11.27106563	     10.90688982	    -63.90319438	      2.68986668	     -3.39625077	    -12.69750248	      8.08616601	    -14.46764418
